<?xml version="1.0" standalone="no"?>
<!DOCTYPE svg PUBLIC "-//W3C//DTD SVG 20010904//EN"
 "http://www.w3.org/TR/2001/REC-SVG-20010904/DTD/svg10.dtd">
<svg version="1.0" xmlns="http://www.w3.org/2000/svg"
 width="509.000000pt" height="129.000000pt" viewBox="0 0 509.000000 129.000000"
 preserveAspectRatio="xMidYMid meet">
<metadata>
Created by potrace 1.16, written by Peter Selinger 2001-2019
</metadata>
<g transform="translate(0.000000,129.000000) scale(0.100000,-0.100000)"
fill="#000000" stroke="none">
<path d="M20 950 l0 -39 149 -3 148 -3 -148 -210 c-134 -190 -148 -214 -149
-252 l0 -43 255 0 255 0 0 40 0 39 -150 3 -151 3 151 215 c129 185 150 219
150 252 l0 38 -255 0 -255 0 0 -40z"/>
<path d="M3633 695 l111 -296 84 3 84 3 103 290 102 290 -54 3 c-31 2 -58 1
-60 -2 -3 -3 -36 -103 -73 -223 -59 -187 -70 -214 -78 -193 -5 14 -40 114 -77
223 l-68 197 -92 0 -93 0 111 -295z"/>
<path d="M714 876 c-103 -33 -164 -122 -164 -235 0 -164 106 -259 277 -249 86
5 123 20 171 69 38 39 38 59 -2 72 -26 9 -32 6 -60 -26 -36 -43 -78 -61 -122
-53 -34 7 -78 48 -93 88 l-10 26 73 -5 c93 -7 167 10 212 49 82 72 60 200 -43
248 -59 28 -180 36 -239 16z m162 -71 c48 -33 55 -122 13 -161 -21 -19 -119
-31 -164 -20 -24 6 -25 10 -19 44 11 60 35 111 62 132 29 24 79 26 108 5z"/>
<path d="M1325 876 c-30 -14 -65 -47 -82 -79 -8 -15 -13 -10 -33 33 -21 45
-27 50 -57 50 l-33 0 0 -240 0 -240 74 0 74 0 4 158 c4 168 17 218 64 249 19
12 25 11 52 -12 17 -14 36 -41 42 -60 6 -19 15 -35 20 -35 13 0 90 132 83 143
-12 19 -90 47 -133 46 -25 0 -58 -6 -75 -13z"/>
<path d="M1730 881 c-125 -38 -190 -124 -190 -250 0 -141 112 -241 270 -241
93 0 160 28 211 89 118 137 49 351 -129 401 -42 11 -125 12 -162 1z m139 -82
c36 -33 51 -82 51 -159 0 -109 -34 -174 -96 -186 -73 -14 -127 64 -127 181 -1
114 43 185 113 185 23 0 44 -8 59 -21z"/>
<path d="M4262 875 c-103 -32 -162 -119 -162 -239 0 -114 62 -206 159 -234 54
-17 149 -15 204 4 48 16 122 85 114 107 -2 6 -19 16 -37 21 -27 8 -35 7 -38
-5 -9 -26 -63 -68 -97 -75 -48 -9 -101 20 -125 67 -11 21 -20 40 -20 42 0 2
33 2 74 -1 102 -6 168 11 217 58 37 35 39 40 39 100 0 59 -2 64 -38 100 -63
63 -188 87 -290 55z m165 -70 c54 -38 50 -141 -7 -170 -31 -16 -136 -20 -158
-6 -28 17 15 144 60 175 28 20 77 20 105 1z"/>
<path d="M4861 873 c-18 -9 -43 -31 -55 -50 -11 -18 -23 -33 -27 -33 -3 0 -15
20 -27 45 -20 41 -25 45 -57 45 l-35 0 0 -240 0 -240 79 0 79 0 4 168 c3 147
5 171 23 202 15 24 29 36 49 38 35 4 54 -12 78 -65 10 -24 22 -43 26 -43 4 0
25 29 46 65 37 63 38 67 21 85 -36 40 -145 52 -204 23z"/>
</g>
</svg>
